<svg xmlns="http://www.w3.org/2000/svg" xmlns:xlink="http://www.w3.org/1999/xlink" width="54.941" height="49.378" viewBox="0 0 54.941 49.378">
  <defs>
    <clipPath id="clip-path">
      <rect id="Rectangle_1401" data-name="Rectangle 1401" width="54.94" height="49.377" fill="#609690"/>
    </clipPath>
  </defs>
  <g id="Your_profile_icon_" data-name="Your profile icon " transform="translate(0 0)">
    <path id="Path_2702" data-name="Path 2702" d="M25.007,5.857l.488-4.189h3.952l.492,4.189,6.24,1.7,2.48-3.381L42.09,6.186l-1.638,3.877,4.556,4.631,3.818-1.659,1.984,3.489-3.331,2.53,1.667,6.307,4.123.5v4.044l-4.123.5L47.48,36.709l3.331,2.53-1.984,3.493L45,41.065,40.452,45.7l.846,2.005H13.639l.855-2.005-4.56-4.636L6.115,42.733,4.131,39.239l3.331-2.53L5.8,30.4l-4.127-.5V25.862l4.127-.5,1.663-6.307-3.331-2.53,1.984-3.489,3.818,1.659,4.56-4.631L12.852,6.186l3.431-2.009,2.484,3.381ZM24.011,0l-.529,4.544-4.048,1.1-2.7-3.668-5.982,3.51,1.772,4.206L9.55,12.706,5.411,10.9,1.963,16.97l3.606,2.739-1.1,4.131L0,24.382v7l4.473.538,1.1,4.139L1.963,38.793l3.447,6.065L9.55,43.054l2.972,3.022-1.4,3.3h32.69l-1.4-3.3,2.972-3.022,4.144,1.805,3.447-6.065-3.606-2.735,1.092-4.139,4.473-.538v-7l-4.473-.542-1.092-4.131,3.606-2.739L49.535,10.9l-4.144,1.805L42.419,9.692l1.776-4.206-5.986-3.51-2.7,3.668-4.043-1.1L30.931,0Z" transform="translate(0 0)" fill="#609690"/>
    <g id="Group_1890" data-name="Group 1890" transform="translate(0 0)">
      <g id="Group_1889" data-name="Group 1889" clip-path="url(#clip-path)">
        <path id="Path_2703" data-name="Path 2703" d="M20.349,39.02a18.259,18.259,0,0,1-18.1-18.371,18.258,18.258,0,0,1,18.1-18.367,18.258,18.258,0,0,1,18.1,18.367,18.259,18.259,0,0,1-18.1,18.371m0-35.071A16.585,16.585,0,0,0,3.92,20.649a16.585,16.585,0,0,0,16.429,16.7,16.586,16.586,0,0,0,16.433-16.7,16.586,16.586,0,0,0-16.433-16.7" transform="translate(7.123 7.232)" fill="#609690"/>
        <path id="Path_2704" data-name="Path 2704" d="M37.367,32.7v4.661H2.395l0-4.54a3.111,3.111,0,0,1,.267-1.346l.025-.05A3.014,3.014,0,0,1,4.05,30L7.106,28.49,8.7,27.706l5.957-2.943a.66.66,0,0,0,.354-.463.674.674,0,0,0-.133-.571,30.06,30.06,0,0,1-1.938-2.71,10.581,10.581,0,0,1-1.676-5.74V11.591C11.262.844,28.4.844,28.4,11.591v3.7a10.57,10.57,0,0,1-1.663,5.719,31.18,31.18,0,0,1-1.918,2.7.688.688,0,0,0-.133.571.679.679,0,0,0,.354.463l6.02,2.993,1.572.78,3.085,1.534c.075.038.146.083.221.125a2.891,2.891,0,0,1,.4.3,1.777,1.777,0,0,1,.179.175,2.925,2.925,0,0,1,.542.784l.017.033a3.11,3.11,0,0,1,.288,1.226" transform="translate(7.589 11.188)" fill="#b2d7d3"/>
        <path id="Path_2705" data-name="Path 2705" d="M10.757,11.512l-.154-.154a2.519,2.519,0,0,0-.267-.192l.888-1.413a4.058,4.058,0,0,1,.5.375l.229.225Z" transform="translate(32.753 30.905)" fill="#609690"/>
        <path id="Path_2706" data-name="Path 2706" d="M38.837,38.822H2.2V33.448a3.945,3.945,0,0,1,.342-1.684A3.9,3.9,0,0,1,4.3,29.892l10.434-5.157c-.592-.742-1.2-1.6-1.863-2.63a11.341,11.341,0,0,1-1.813-6.195V12.226c0-5.84,4.732-8.9,9.4-8.9s9.4,3.056,9.4,8.9v3.693a11.379,11.379,0,0,1-1.793,6.17c-.655,1.017-1.259,1.876-1.851,2.626l10.7,5.332a3.956,3.956,0,0,1,.6.438,3.4,3.4,0,0,1,.246.242,3.777,3.777,0,0,1,.675.984,3.949,3.949,0,0,1,.384,1.6l0,.021ZM3.865,37.154h33.3V33.34a2.25,2.25,0,0,0-.208-.884,2.306,2.306,0,0,0-.4-.6,2.687,2.687,0,0,0-.421-.346L25.309,26.12a1.5,1.5,0,0,1-.8-1.034,1.512,1.512,0,0,1,.3-1.271,30.648,30.648,0,0,0,1.859-2.626,9.709,9.709,0,0,0,1.53-5.269V12.226C28.2,7.257,24.192,5,20.465,5s-7.737,2.259-7.737,7.228v3.685A9.675,9.675,0,0,0,14.274,21.2a30.426,30.426,0,0,0,1.88,2.643,1.5,1.5,0,0,1,.3,1.271,1.479,1.479,0,0,1-.809,1.034l-10.6,5.236A2.2,2.2,0,0,0,4.081,32.4a2.315,2.315,0,0,0-.217,1.021Z" transform="translate(6.957 10.553)" fill="#609690"/>
      </g>
    </g>
  </g>
</svg>
