<svg xmlns="http://www.w3.org/2000/svg" xmlns:xlink="http://www.w3.org/1999/xlink" width="35.742" height="38.384" viewBox="0 0 35.742 38.384">
  <defs>
    <clipPath id="clip-path">
      <rect id="Rectangle_1412" data-name="Rectangle 1412" width="35.742" height="38.384" fill="#609690"/>
    </clipPath>
  </defs>
  <g id="Composition_icon_" data-name="Composition icon " transform="translate(0 0)">
    <g id="Group_1909" data-name="Group 1909" transform="translate(0 0)" clip-path="url(#clip-path)">
      <path id="Path_2734" data-name="Path 2734" d="M1.525,17.708a.855.855,0,0,1-.856-.856V5.72a.856.856,0,1,1,1.712,0V16.852a.855.855,0,0,1-.856.856" transform="translate(1.24 9.012)" fill="#609690"/>
      <path id="Path_2735" data-name="Path 2735" d="M2.3,8.811a.856.856,0,0,1-.428-1.6l9.1-5.255a.855.855,0,1,1,.856,1.481l-9.1,5.255a.824.824,0,0,1-.425.117" transform="translate(2.669 3.411)" fill="#609690"/>
      <path id="Path_2736" data-name="Path 2736" d="M11.78,6.329a.824.824,0,0,1-.425-.117l-4.8-2.773A.856.856,0,0,1,7.4,1.955l4.8,2.776a.856.856,0,0,1-.428,1.6" transform="translate(11.343 3.411)" fill="#609690"/>
      <path id="Path_2737" data-name="Path 2737" d="M10.94,22.2a.855.855,0,0,1-.856-.856V8.838A16.943,16.943,0,0,1,11.5,2.9a.847.847,0,0,1,1.158-.354A.857.857,0,0,1,13.014,3.7a15.494,15.494,0,0,0-1.221,5.187l0,12.462a.855.855,0,0,1-.856.856" transform="translate(18.686 4.517)" fill="#609690"/>
      <path id="Path_2738" data-name="Path 2738" d="M6.979,16.964a.856.856,0,0,1-.428-1.6l9.064-5.232a.855.855,0,1,1,.856,1.481L7.4,16.85a.849.849,0,0,1-.425.114" transform="translate(11.343 18.564)" fill="#609690"/>
      <path id="Path_2739" data-name="Path 2739" d="M11.2,16.867a.849.849,0,0,1-.425-.114l-8.9-5.135a.856.856,0,0,1,.856-1.484l8.9,5.135a.856.856,0,0,1-.428,1.6" transform="translate(2.694 18.564)" fill="#609690"/>
      <path id="Path_2740" data-name="Path 2740" d="M7.533,6.522A2.87,2.87,0,0,1,5.094,2.154,2.869,2.869,0,1,1,8.209,6.442a2.88,2.88,0,0,1-.676.08m.011-4.28a1.482,1.482,0,0,0-.334.04,1.4,1.4,0,1,0,.334-.04" transform="translate(8.655 1.452)" fill="#609690"/>
      <path id="Path_2741" data-name="Path 2741" d="M7.533,17.181a2.878,2.878,0,1,1,.676-.08,2.881,2.881,0,0,1-.676.08m.011-4.28a1.482,1.482,0,0,0-.334.04,1.4,1.4,0,1,0,.334-.04" transform="translate(8.655 21.203)" fill="#609690"/>
      <path id="Path_2742" data-name="Path 2742" d="M2.859,14.579a2.878,2.878,0,1,1,.679-.08,2.887,2.887,0,0,1-.679.08m.014-4.28a1.482,1.482,0,0,0-.334.04,1.4,1.4,0,1,0,.334-.04" transform="translate(-0.001 16.381)" fill="#609690"/>
      <path id="Path_2743" data-name="Path 2743" d="M12.208,14.579a2.878,2.878,0,1,1,.676-.08,2.881,2.881,0,0,1-.676.08m.011-4.28a1.482,1.482,0,0,0-.334.04,1.4,1.4,0,1,0,.334-.04" transform="translate(17.318 16.381)" fill="#609690"/>
      <path id="Path_2744" data-name="Path 2744" d="M2.859,9.108a2.878,2.878,0,1,1,.679-.08,2.887,2.887,0,0,1-.679.08m.014-4.28a1.482,1.482,0,0,0-.334.04,1.4,1.4,0,1,0,.334-.04" transform="translate(-0.001 6.243)" fill="#609690"/>
      <path id="Path_2745" data-name="Path 2745" d="M14.217,15.635a5.874,5.874,0,0,1-4.359-2c-3.1-3.435.979-8.525,1.153-8.742l.029-.031c.633-.7,1.389-1.478,2.188-2.217A28.787,28.787,0,0,1,16.314.16.853.853,0,0,1,17.6.525,29.928,29.928,0,0,1,19.618,9.84a5.39,5.39,0,0,1-3.307,5.384,5.552,5.552,0,0,1-2.094.411M12.328,5.992c-.214.271-3.252,4.222-1.2,6.5a4.035,4.035,0,0,0,4.536,1.147,3.665,3.665,0,0,0,2.24-3.732A28.376,28.376,0,0,0,16.4,2.217,25.435,25.435,0,0,0,14.391,3.9c-.753.7-1.466,1.427-2.063,2.088" transform="translate(16.122 -0.001)" fill="#609690"/>
    </g>
  </g>
</svg>
