<svg xmlns="http://www.w3.org/2000/svg" xmlns:xlink="http://www.w3.org/1999/xlink" width="35.551" height="30.03" viewBox="0 0 35.551 30.03">
  <defs>
    <clipPath id="clip-path">
      <rect id="Rectangle_1415" data-name="Rectangle 1415" width="35.551" height="30.03" fill="#609690"/>
    </clipPath>
  </defs>
  <g id="Gallery_icon" data-name="Gallery icon" transform="translate(0 0)">
    <g id="Group_1915" data-name="Group 1915" transform="translate(0 0)" clip-path="url(#clip-path)">
      <path id="Path_2758" data-name="Path 2758" d="M25.512,26.507a.825.825,0,0,1-.826-.826V12.3a2.647,2.647,0,0,0-2.646-2.644H2.738a.829.829,0,0,1-.8-1.022L3.229,3.29A4.229,4.229,0,0,1,5.159.63,4.3,4.3,0,0,1,8.406.12L28.926,5.1a4.325,4.325,0,0,1,2.646,1.95,4.218,4.218,0,0,1,.5,3.241L28.9,23.37a4.253,4.253,0,0,1-3.211,3.117.809.809,0,0,1-.179.019M3.788,8H22.039a4.3,4.3,0,0,1,4.3,4.3V24.414a2.606,2.606,0,0,0,.964-1.443L30.463,9.9l0-.008a2.567,2.567,0,0,0-.306-1.977,2.664,2.664,0,0,0-1.63-1.2L8.023,1.726a2.7,2.7,0,0,0-2,.317A2.6,2.6,0,0,0,4.834,3.675Z" transform="translate(3.353 0)" fill="#609690"/>
      <path id="Path_2759" data-name="Path 2759" d="M25.391,24.935H4.3a4.3,4.3,0,0,1-4.3-4.3V7.2a4.3,4.3,0,0,1,4.3-4.3H25.391a4.3,4.3,0,0,1,4.3,4.3V20.639a4.3,4.3,0,0,1-4.3,4.3M4.3,4.557A2.648,2.648,0,0,0,1.654,7.2V20.639A2.615,2.615,0,0,0,4.3,23.283H25.391a2.617,2.617,0,0,0,2.644-2.644V7.2a2.648,2.648,0,0,0-2.644-2.644Z" transform="translate(0.004 5.094)" fill="#609690"/>
      <path id="Path_2760" data-name="Path 2760" d="M10.213,11.191a3.463,3.463,0,1,1,3.461-3.464,3.466,3.466,0,0,1-3.461,3.464m0-5.273a1.811,1.811,0,1,0,1.809,1.809,1.813,1.813,0,0,0-1.809-1.809" transform="translate(11.841 7.479)" fill="#609690"/>
      <path id="Path_2761" data-name="Path 2761" d="M20.955,14.492a.811.811,0,0,1-.383-.094L8.979,8.329,1.087,10.95a.826.826,0,0,1-.52-1.567L8.792,6.652a.811.811,0,0,1,.644.052L20.969,12.74,28.3,9.188a.826.826,0,0,1,.719,1.487l-7.7,3.734a.832.832,0,0,1-.361.083" transform="translate(0.001 11.588)" fill="#609690"/>
    </g>
  </g>
</svg>
