<svg xmlns="http://www.w3.org/2000/svg" width="32.028" height="20.148" viewBox="0 0 32.028 20.148">
  <g id="Time_icon_" data-name="Time icon " transform="translate(0 0)">
    <g id="Group_1919" data-name="Group 1919" transform="translate(0 0)">
      <path id="Path_2762" data-name="Path 2762" d="M13.566,11.116a.682.682,0,0,1-.486-.2L9.473,7.308a.678.678,0,0,1-.2-.486V3.2a.688.688,0,0,1,1.376,0V6.537l3.4,3.4a.688.688,0,0,1-.486,1.174" transform="translate(11.987 3.249)" fill="#b7b5b5"/>
      <path id="Path_2763" data-name="Path 2763" d="M18.163,20.148a10.048,10.048,0,0,1-7.475-3.318H3.619a.687.687,0,1,1,0-1.373H11a.683.683,0,0,1,.525.243,8.7,8.7,0,1,0,.018-11.267.685.685,0,0,1-.525.241h-7.4a.687.687,0,1,1,0-1.373h7.087a10.075,10.075,0,1,1,7.457,16.848" transform="translate(3.79 0)" fill="#b7b5b5"/>
      <path id="Path_2764" data-name="Path 2764" d="M11.319,4.248H2.108a.688.688,0,1,1,0-1.376h9.211a.688.688,0,1,1,0,1.376" transform="translate(1.836 3.713)" fill="#b7b5b5"/>
      <path id="Path_2765" data-name="Path 2765" d="M11.319,6.839H2.108a.688.688,0,0,1,0-1.376h9.211a.688.688,0,0,1,0,1.376" transform="translate(1.836 7.063)" fill="#b7b5b5"/>
      <path id="Path_2766" data-name="Path 2766" d="M12.98,5.541H.688a.688.688,0,1,1,0-1.376H12.98a.688.688,0,1,1,0,1.376" transform="translate(0 5.385)" fill="#b7b5b5"/>
    </g>
  </g>
</svg>
