<svg xmlns="http://www.w3.org/2000/svg" xmlns:xlink="http://www.w3.org/1999/xlink" width="967.479" height="1070.186" viewBox="0 0 967.479 1070.186">
  <defs>
    <clipPath id="clip-path">
      <path id="Path_850" data-name="Path 850" d="M398.175,1040.572l-26.581-46.154a32.936,32.936,0,0,1,.008-32.887l26.563-46.05a33.016,33.016,0,0,1,28.5-16.454h53.218a93.331,93.331,0,0,0,80.567-46.549l26.65-46.061a33.02,33.02,0,0,1,28.5-16.452h53.217A93.332,93.332,0,0,0,749.382,743.4l26.565-46.052a33.13,33.13,0,0,1,28.574-16.529h53.22a33.058,33.058,0,0,1,28.489,16.521l26.575,46.067a32.937,32.937,0,0,1-.01,32.894l-26.564,46.127a93.386,93.386,0,0,0-.008,93.031l26.581,46.075a32.933,32.933,0,0,1-.01,32.892l-26.56,46.127a33.021,33.021,0,0,1-28.5,16.45h-53.22a93.3,93.3,0,0,0-80.571,46.478l-26.644,46.133a33.021,33.021,0,0,1-28.5,16.452H615.591a33.013,33.013,0,0,1-28.493-16.45l-26.648-46.137a93.3,93.3,0,0,0-80.571-46.476H426.661a33.009,33.009,0,0,1-28.486-16.437M804.521,661.01a53,53,0,0,0-45.73,26.43L732.222,733.5a73.461,73.461,0,0,1-63.414,36.654H615.591A52.882,52.882,0,0,0,569.946,796.5l-26.654,46.063a73.459,73.459,0,0,1-63.414,36.65H426.661A52.9,52.9,0,0,0,381.01,905.57l-26.565,46.05a52.78,52.78,0,0,0-.01,52.7l26.579,46.158a52.894,52.894,0,0,0,45.647,26.344h53.218a73.422,73.422,0,0,1,63.414,36.575l26.652,46.142a52.888,52.888,0,0,0,45.647,26.346h53.217a52.892,52.892,0,0,0,45.651-26.349l26.648-46.139a73.425,73.425,0,0,1,63.414-36.575h53.22a52.9,52.9,0,0,0,45.655-26.361l26.562-46.125a52.776,52.776,0,0,0,0-52.7L903.4,905.576a73.509,73.509,0,0,1,0-73.244l26.562-46.123a52.78,52.78,0,0,0,0-52.707l-26.575-46.067a52.925,52.925,0,0,0-45.645-26.425ZM587.1,713.372l-26.65-46.141a32.927,32.927,0,0,1,0-32.879l26.65-46.061a33.064,33.064,0,0,1,28.5-16.531h53.217a93.292,93.292,0,0,0,80.573-46.482l26.565-46.05A33.122,33.122,0,0,1,804.521,462.7h53.22a33.052,33.052,0,0,1,28.489,16.519L912.8,525.282a93.3,93.3,0,0,0,80.571,46.478h53.217a32.887,32.887,0,0,1,28.5,16.535l26.648,46.054a32.934,32.934,0,0,1,0,32.883l-26.652,46.141a93.385,93.385,0,0,0,0,93.048l26.648,46.056a32.929,32.929,0,0,1,0,32.885l-26.67,46.171a32.822,32.822,0,0,1-28.472,16.413H993.373a33.011,33.011,0,0,1-28.485-16.438l-26.579-46.15a32.926,32.926,0,0,1,.006-32.889L964.888,806.4a93.365,93.365,0,0,0,0-93.017L938.3,667.214a93.5,93.5,0,0,0-80.56-46.459h-53.22a93.293,93.293,0,0,0-80.571,46.478L697.306,713.37a33.028,33.028,0,0,1-28.5,16.452H615.591a33.019,33.019,0,0,1-28.493-16.45M804.521,442.885a53,53,0,0,0-45.73,26.434l-26.569,46.054a73.427,73.427,0,0,1-63.414,36.575H615.591a52.923,52.923,0,0,0-45.645,26.425l-26.65,46.06a52.785,52.785,0,0,0,0,52.714l26.652,46.14a52.888,52.888,0,0,0,45.647,26.348h53.217a52.894,52.894,0,0,0,45.651-26.351l26.648-46.137a73.418,73.418,0,0,1,63.414-36.577h53.22a73.594,73.594,0,0,1,63.406,36.565l26.577,46.148a73.5,73.5,0,0,1,0,73.224l-26.564,46.05a52.786,52.786,0,0,0-.012,52.7l26.579,46.148a52.885,52.885,0,0,0,45.647,26.348h53.217a52.672,52.672,0,0,0,45.649-26.349l26.648-46.133a52.79,52.79,0,0,0,0-52.72l-26.639-46.038a73.515,73.515,0,0,1-.008-73.234l26.648-46.133a52.794,52.794,0,0,0,0-52.722l-26.627-46.017a52.727,52.727,0,0,0-45.668-26.463H993.373a73.428,73.428,0,0,1-63.412-36.571L903.386,469.31a52.929,52.929,0,0,0-45.645-26.425ZM209.245,931.507l-26.581-46.15a32.931,32.931,0,0,1,.008-32.889l26.562-46.048a92.979,92.979,0,0,0,.012-93.037l-26.581-46.152a32.934,32.934,0,0,1,.008-32.891L209.233,588.3a92.973,92.973,0,0,0,.012-93.039L182.664,449.1a32.931,32.931,0,0,1,.008-32.889l26.563-46.05a33.129,33.129,0,0,1,28.574-16.531h53.219a33.057,33.057,0,0,1,28.489,16.521l26.573,46.067a32.935,32.935,0,0,1-.01,32.9L319.52,495.247a93.369,93.369,0,0,0,0,93.035l26.569,46.065a93.3,93.3,0,0,0,80.573,46.476h53.218a32.894,32.894,0,0,1,28.5,16.531l26.648,46.058a32.92,32.92,0,0,1,0,32.883l-26.668,46.175a32.835,32.835,0,0,1-28.474,16.412H426.661a93.3,93.3,0,0,0-80.579,46.491l-26.56,46.119a33.017,33.017,0,0,1-28.493,16.454H237.809a33.08,33.08,0,0,1-28.565-16.438M237.809,333.82a53,53,0,0,0-45.73,26.436l-26.565,46.05a52.777,52.777,0,0,0-.01,52.7l26.589,46.168a73.133,73.133,0,0,1-.014,73.205l-26.565,46.05a52.777,52.777,0,0,0-.01,52.7L192.093,723.3a73.133,73.133,0,0,1-.014,73.205l-26.565,46.05a52.781,52.781,0,0,0-.01,52.7l26.579,46.148a52.952,52.952,0,0,0,45.726,26.348h53.219A52.891,52.891,0,0,0,336.683,941.4l26.562-46.125A73.421,73.421,0,0,1,426.661,858.7h53.218a52.67,52.67,0,0,0,45.649-26.353l26.646-46.133a52.779,52.779,0,0,0,0-52.716L525.548,687.47a52.731,52.731,0,0,0-45.67-26.459H426.661a73.429,73.429,0,0,1-63.414-36.571l-26.564-46.048a73.512,73.512,0,0,1,0-73.248l26.56-46.121a52.774,52.774,0,0,0,0-52.709l-26.573-46.067a52.93,52.93,0,0,0-45.645-26.427ZM964.888,495.26,938.32,449.122l-.012-.017a32.926,32.926,0,0,1,.006-32.889l26.563-46.05a33.06,33.06,0,0,1,28.5-16.531h53.217a32.887,32.887,0,0,1,28.5,16.535l26.648,46.054a32.929,32.929,0,0,1,0,32.885l-26.668,46.175a32.835,32.835,0,0,1-28.474,16.411H993.373a33.014,33.014,0,0,1-28.485-16.435m28.485-161.44a52.93,52.93,0,0,0-45.651,26.436l-26.564,46.05a52.78,52.78,0,0,0,0,52.716l26.567,46.139a52.9,52.9,0,0,0,45.647,26.348h53.217a52.675,52.675,0,0,0,45.649-26.351l26.648-46.135a52.79,52.79,0,0,0,0-52.72l-26.627-46.017a52.725,52.725,0,0,0-45.668-26.465Zm-595.2,270.5-26.581-46.152a32.943,32.943,0,0,1,.008-32.891l26.573-46.065a93.373,93.373,0,0,0,0-93.019l-26.569-46.139-.012-.014a32.936,32.936,0,0,1,.008-32.887L398.165,261.1a33.055,33.055,0,0,1,28.5-16.531h53.218a32.889,32.889,0,0,1,28.5,16.533l26.644,46.056a93.3,93.3,0,0,0,80.571,46.474h53.217a33.064,33.064,0,0,1,28.5,16.535l26.646,46.054a32.924,32.924,0,0,1,0,32.885l-26.644,46.137a33.026,33.026,0,0,1-28.5,16.45H615.591a93.3,93.3,0,0,0-80.571,46.476l-26.668,46.175a32.837,32.837,0,0,1-28.474,16.41H426.661a33.007,33.007,0,0,1-28.486-16.435M426.661,224.76a52.926,52.926,0,0,0-45.651,26.434l-26.565,46.052a52.789,52.789,0,0,0-.01,52.7l26.575,46.15a73.492,73.492,0,0,1,0,73.224l-26.565,46.05a52.787,52.787,0,0,0-.01,52.7l26.579,46.152a52.892,52.892,0,0,0,45.647,26.346h53.218a52.675,52.675,0,0,0,45.649-26.349l26.65-46.137a73.42,73.42,0,0,1,63.414-36.575h53.217a52.9,52.9,0,0,0,45.651-26.351L741.1,459.023a52.782,52.782,0,0,0,0-52.72l-26.646-46.056a52.928,52.928,0,0,0-45.647-26.427H615.591a73.433,73.433,0,0,1-63.418-36.577l-26.625-46.021a52.726,52.726,0,0,0-45.67-26.463ZM587.1,277.119l-26.65-46.14a32.927,32.927,0,0,1,0-32.879l26.65-46.061a33.064,33.064,0,0,1,28.5-16.529h53.217a33.067,33.067,0,0,1,28.5,16.531l26.643,46.054a93.289,93.289,0,0,0,80.571,46.478h53.22a33.05,33.05,0,0,1,28.489,16.521l26.575,46.069a32.933,32.933,0,0,1-.01,32.893l-26.56,46.125a33.023,33.023,0,0,1-28.5,16.452h-53.22a33.078,33.078,0,0,1-28.564-16.439L749.38,340.045a93.293,93.293,0,0,0-80.571-46.476H615.591a33.018,33.018,0,0,1-28.493-16.45M615.591,115.7a52.93,52.93,0,0,0-45.645,26.421L543.3,188.179a52.782,52.782,0,0,0,0,52.712l26.648,46.141,0,0a52.886,52.886,0,0,0,45.647,26.348h53.217a73.419,73.419,0,0,1,63.408,36.563L758.8,396.1a52.958,52.958,0,0,0,45.724,26.347h53.22A52.9,52.9,0,0,0,903.4,396.085l26.562-46.127a52.776,52.776,0,0,0,0-52.7l-26.575-46.069a52.925,52.925,0,0,0-45.645-26.425h-53.22a73.428,73.428,0,0,1-63.42-36.582l-26.646-46.056A52.929,52.929,0,0,0,668.809,115.7Z" transform="translate(-158.46 -115.697)" fill="none" stroke="#e9e9e9" stroke-width="1"/>
    </clipPath>
  </defs>
  <g id="Pattern_logo" data-name="Pattern logo" transform="translate(-102.2 -125.697)">
    <g id="Group_68" data-name="Group 68" transform="translate(102.2 125.697)" clip-path="url(#clip-path)">
      <line id="Line_306" data-name="Line 306" y1="785.588" x2="785.588" transform="translate(-303.438 -220.999)" fill="none" stroke="#e9e9e9" stroke-width="3"/>
      <line id="Line_307" data-name="Line 307" y1="785.588" x2="785.588" transform="translate(-295.812 -213.374)" fill="none" stroke="#e9e9e9" stroke-width="3"/>
      <line id="Line_308" data-name="Line 308" y1="785.588" x2="785.588" transform="translate(-288.187 -205.748)" fill="none" stroke="#e9e9e9" stroke-width="3"/>
      <line id="Line_309" data-name="Line 309" y1="785.588" x2="785.588" transform="translate(-280.562 -198.123)" fill="none" stroke="#e9e9e9" stroke-width="3"/>
      <line id="Line_310" data-name="Line 310" y1="785.588" x2="785.588" transform="translate(-272.936 -190.497)" fill="none" stroke="#e9e9e9" stroke-width="3"/>
      <line id="Line_311" data-name="Line 311" y1="785.588" x2="785.588" transform="translate(-265.311 -182.872)" fill="none" stroke="#e9e9e9" stroke-width="3"/>
      <line id="Line_312" data-name="Line 312" y1="785.588" x2="785.588" transform="translate(-257.685 -175.247)" fill="none" stroke="#e9e9e9" stroke-width="3"/>
      <line id="Line_313" data-name="Line 313" y1="785.588" x2="785.588" transform="translate(-250.06 -167.621)" fill="none" stroke="#e9e9e9" stroke-width="3"/>
      <line id="Line_314" data-name="Line 314" y1="785.588" x2="785.588" transform="translate(-242.435 -159.996)" fill="none" stroke="#e9e9e9" stroke-width="3"/>
      <line id="Line_315" data-name="Line 315" y1="785.588" x2="785.588" transform="translate(-234.809 -152.371)" fill="none" stroke="#e9e9e9" stroke-width="3"/>
      <line id="Line_316" data-name="Line 316" y1="785.588" x2="785.588" transform="translate(-227.184 -144.745)" fill="none" stroke="#e9e9e9" stroke-width="3"/>
      <line id="Line_317" data-name="Line 317" y1="785.588" x2="785.588" transform="translate(-219.558 -137.12)" fill="none" stroke="#e9e9e9" stroke-width="3"/>
      <line id="Line_318" data-name="Line 318" y1="785.588" x2="785.588" transform="translate(-211.933 -129.494)" fill="none" stroke="#e9e9e9" stroke-width="3"/>
      <line id="Line_319" data-name="Line 319" y1="785.588" x2="785.588" transform="translate(-204.307 -121.869)" fill="none" stroke="#e9e9e9" stroke-width="3"/>
      <line id="Line_320" data-name="Line 320" y1="785.588" x2="785.588" transform="translate(-196.682 -114.244)" fill="none" stroke="#e9e9e9" stroke-width="3"/>
      <line id="Line_321" data-name="Line 321" y1="785.588" x2="785.588" transform="translate(-189.057 -106.618)" fill="none" stroke="#e9e9e9" stroke-width="3"/>
      <line id="Line_322" data-name="Line 322" y1="785.588" x2="785.588" transform="translate(-181.431 -98.993)" fill="none" stroke="#e9e9e9" stroke-width="3"/>
      <line id="Line_323" data-name="Line 323" y1="785.588" x2="785.588" transform="translate(-173.806 -91.367)" fill="none" stroke="#e9e9e9" stroke-width="3"/>
      <line id="Line_324" data-name="Line 324" y1="785.588" x2="785.588" transform="translate(-166.181 -83.742)" fill="none" stroke="#e9e9e9" stroke-width="3"/>
      <line id="Line_325" data-name="Line 325" y1="785.588" x2="785.588" transform="translate(-158.555 -76.117)" fill="none" stroke="#e9e9e9" stroke-width="3"/>
      <line id="Line_326" data-name="Line 326" y1="785.588" x2="785.588" transform="translate(-150.93 -68.491)" fill="none" stroke="#e9e9e9" stroke-width="3"/>
      <line id="Line_327" data-name="Line 327" y1="785.588" x2="785.588" transform="translate(-143.304 -60.866)" fill="none" stroke="#e9e9e9" stroke-width="3"/>
      <line id="Line_328" data-name="Line 328" y1="785.588" x2="785.588" transform="translate(-135.679 -53.24)" fill="none" stroke="#e9e9e9" stroke-width="3"/>
      <line id="Line_329" data-name="Line 329" y1="785.588" x2="785.588" transform="translate(-128.054 -45.615)" fill="none" stroke="#e9e9e9" stroke-width="3"/>
      <line id="Line_330" data-name="Line 330" y1="785.588" x2="785.588" transform="translate(-120.428 -37.989)" fill="none" stroke="#e9e9e9" stroke-width="3"/>
      <line id="Line_331" data-name="Line 331" y1="785.588" x2="785.588" transform="translate(-112.803 -30.364)" fill="none" stroke="#e9e9e9" stroke-width="3"/>
      <line id="Line_332" data-name="Line 332" y1="785.588" x2="785.588" transform="translate(-105.177 -22.739)" fill="none" stroke="#e9e9e9" stroke-width="3"/>
      <line id="Line_333" data-name="Line 333" y1="785.588" x2="785.588" transform="translate(-97.552 -15.113)" fill="none" stroke="#e9e9e9" stroke-width="3"/>
      <line id="Line_334" data-name="Line 334" y1="785.588" x2="785.588" transform="translate(-89.926 -7.488)" fill="none" stroke="#e9e9e9" stroke-width="3"/>
      <line id="Line_335" data-name="Line 335" y1="785.588" x2="785.588" transform="translate(-82.301 0.137)" fill="none" stroke="#e9e9e9" stroke-width="3"/>
      <line id="Line_336" data-name="Line 336" y1="785.588" x2="785.588" transform="translate(-74.676 7.763)" fill="none" stroke="#e9e9e9" stroke-width="3"/>
      <line id="Line_337" data-name="Line 337" y1="785.588" x2="785.588" transform="translate(-67.05 15.388)" fill="none" stroke="#e9e9e9" stroke-width="3"/>
      <line id="Line_338" data-name="Line 338" y1="785.588" x2="785.588" transform="translate(-59.425 23.014)" fill="none" stroke="#e9e9e9" stroke-width="3"/>
      <line id="Line_339" data-name="Line 339" y1="785.588" x2="785.588" transform="translate(-51.8 30.639)" fill="none" stroke="#e9e9e9" stroke-width="3"/>
      <line id="Line_340" data-name="Line 340" y1="785.588" x2="785.588" transform="translate(-44.174 38.264)" fill="none" stroke="#e9e9e9" stroke-width="3"/>
      <line id="Line_341" data-name="Line 341" y1="785.588" x2="785.588" transform="translate(-36.549 45.89)" fill="none" stroke="#e9e9e9" stroke-width="3"/>
      <line id="Line_342" data-name="Line 342" y1="785.588" x2="785.588" transform="translate(-28.923 53.515)" fill="none" stroke="#e9e9e9" stroke-width="3"/>
      <line id="Line_343" data-name="Line 343" y1="785.588" x2="785.588" transform="translate(-21.298 61.141)" fill="none" stroke="#e9e9e9" stroke-width="3"/>
      <line id="Line_344" data-name="Line 344" y1="785.588" x2="785.588" transform="translate(-13.673 68.766)" fill="none" stroke="#e9e9e9" stroke-width="3"/>
      <line id="Line_345" data-name="Line 345" y1="785.588" x2="785.588" transform="translate(-6.047 76.391)" fill="none" stroke="#e9e9e9" stroke-width="3"/>
      <line id="Line_346" data-name="Line 346" y1="785.588" x2="785.588" transform="translate(1.578 84.017)" fill="none" stroke="#e9e9e9" stroke-width="3"/>
      <line id="Line_347" data-name="Line 347" y1="785.588" x2="785.588" transform="translate(9.203 91.642)" fill="none" stroke="#e9e9e9" stroke-width="3"/>
      <line id="Line_348" data-name="Line 348" y1="785.588" x2="785.588" transform="translate(16.829 99.268)" fill="none" stroke="#e9e9e9" stroke-width="3"/>
      <line id="Line_349" data-name="Line 349" y1="785.588" x2="785.588" transform="translate(24.454 106.893)" fill="none" stroke="#e9e9e9" stroke-width="3"/>
      <line id="Line_350" data-name="Line 350" y1="785.588" x2="785.588" transform="translate(32.08 114.518)" fill="none" stroke="#e9e9e9" stroke-width="3"/>
      <line id="Line_351" data-name="Line 351" y1="785.588" x2="785.588" transform="translate(39.705 122.144)" fill="none" stroke="#e9e9e9" stroke-width="3"/>
      <line id="Line_352" data-name="Line 352" y1="785.588" x2="785.588" transform="translate(47.331 129.769)" fill="none" stroke="#e9e9e9" stroke-width="3"/>
      <line id="Line_353" data-name="Line 353" y1="785.588" x2="785.588" transform="translate(54.956 137.395)" fill="none" stroke="#e9e9e9" stroke-width="3"/>
      <line id="Line_354" data-name="Line 354" y1="785.588" x2="785.588" transform="translate(62.581 145.02)" fill="none" stroke="#e9e9e9" stroke-width="3"/>
      <line id="Line_355" data-name="Line 355" y1="785.588" x2="785.588" transform="translate(70.207 152.645)" fill="none" stroke="#e9e9e9" stroke-width="3"/>
      <line id="Line_356" data-name="Line 356" y1="785.588" x2="785.588" transform="translate(77.832 160.271)" fill="none" stroke="#e9e9e9" stroke-width="3"/>
      <line id="Line_357" data-name="Line 357" y1="785.588" x2="785.588" transform="translate(85.458 167.896)" fill="none" stroke="#e9e9e9" stroke-width="3"/>
      <line id="Line_358" data-name="Line 358" y1="785.588" x2="785.588" transform="translate(93.083 175.521)" fill="none" stroke="#e9e9e9" stroke-width="3"/>
      <line id="Line_359" data-name="Line 359" y1="785.588" x2="785.588" transform="translate(100.708 183.147)" fill="none" stroke="#e9e9e9" stroke-width="3"/>
      <line id="Line_360" data-name="Line 360" y1="785.588" x2="785.588" transform="translate(108.334 190.772)" fill="none" stroke="#e9e9e9" stroke-width="3"/>
      <line id="Line_361" data-name="Line 361" y1="785.588" x2="785.588" transform="translate(115.959 198.398)" fill="none" stroke="#e9e9e9" stroke-width="3"/>
      <line id="Line_362" data-name="Line 362" y1="785.588" x2="785.588" transform="translate(123.584 206.023)" fill="none" stroke="#e9e9e9" stroke-width="3"/>
      <line id="Line_363" data-name="Line 363" y1="785.588" x2="785.588" transform="translate(131.21 213.648)" fill="none" stroke="#e9e9e9" stroke-width="3"/>
      <line id="Line_364" data-name="Line 364" y1="785.588" x2="785.588" transform="translate(138.835 221.274)" fill="none" stroke="#e9e9e9" stroke-width="3"/>
      <line id="Line_365" data-name="Line 365" y1="785.588" x2="785.588" transform="translate(146.461 228.899)" fill="none" stroke="#e9e9e9" stroke-width="3"/>
      <line id="Line_366" data-name="Line 366" y1="785.588" x2="785.588" transform="translate(154.086 236.525)" fill="none" stroke="#e9e9e9" stroke-width="3"/>
      <line id="Line_367" data-name="Line 367" y1="785.588" x2="785.588" transform="translate(161.712 244.15)" fill="none" stroke="#e9e9e9" stroke-width="3"/>
      <line id="Line_368" data-name="Line 368" y1="785.588" x2="785.588" transform="translate(169.337 251.775)" fill="none" stroke="#e9e9e9" stroke-width="3"/>
      <line id="Line_369" data-name="Line 369" y1="785.588" x2="785.588" transform="translate(176.962 259.401)" fill="none" stroke="#e9e9e9" stroke-width="3"/>
      <line id="Line_370" data-name="Line 370" y1="785.588" x2="785.588" transform="translate(184.588 267.026)" fill="none" stroke="#e9e9e9" stroke-width="3"/>
      <line id="Line_371" data-name="Line 371" y1="785.588" x2="785.588" transform="translate(192.213 274.652)" fill="none" stroke="#e9e9e9" stroke-width="3"/>
      <line id="Line_372" data-name="Line 372" y1="785.588" x2="785.588" transform="translate(199.838 282.277)" fill="none" stroke="#e9e9e9" stroke-width="3"/>
      <line id="Line_373" data-name="Line 373" y1="785.588" x2="785.588" transform="translate(207.464 289.902)" fill="none" stroke="#e9e9e9" stroke-width="3"/>
      <line id="Line_374" data-name="Line 374" y1="785.588" x2="785.588" transform="translate(215.089 297.528)" fill="none" stroke="#e9e9e9" stroke-width="3"/>
      <line id="Line_375" data-name="Line 375" y1="785.588" x2="785.588" transform="translate(222.715 305.153)" fill="none" stroke="#e9e9e9" stroke-width="3"/>
      <line id="Line_376" data-name="Line 376" y1="785.588" x2="785.588" transform="translate(230.34 312.779)" fill="none" stroke="#e9e9e9" stroke-width="3"/>
      <line id="Line_377" data-name="Line 377" y1="785.588" x2="785.588" transform="translate(237.965 320.404)" fill="none" stroke="#e9e9e9" stroke-width="3"/>
      <line id="Line_378" data-name="Line 378" y1="785.588" x2="785.588" transform="translate(245.591 328.029)" fill="none" stroke="#e9e9e9" stroke-width="3"/>
      <line id="Line_379" data-name="Line 379" y1="785.588" x2="785.588" transform="translate(253.216 335.655)" fill="none" stroke="#e9e9e9" stroke-width="3"/>
      <line id="Line_380" data-name="Line 380" y1="785.588" x2="785.588" transform="translate(260.842 343.28)" fill="none" stroke="#e9e9e9" stroke-width="3"/>
      <line id="Line_381" data-name="Line 381" y1="785.588" x2="785.588" transform="translate(268.467 350.906)" fill="none" stroke="#e9e9e9" stroke-width="3"/>
      <line id="Line_382" data-name="Line 382" y1="785.588" x2="785.588" transform="translate(276.093 358.531)" fill="none" stroke="#e9e9e9" stroke-width="3"/>
      <line id="Line_383" data-name="Line 383" y1="785.588" x2="785.588" transform="translate(283.718 366.156)" fill="none" stroke="#e9e9e9" stroke-width="3"/>
      <line id="Line_384" data-name="Line 384" y1="785.588" x2="785.588" transform="translate(291.343 373.782)" fill="none" stroke="#e9e9e9" stroke-width="3"/>
      <line id="Line_385" data-name="Line 385" y1="785.588" x2="785.588" transform="translate(298.969 381.407)" fill="none" stroke="#e9e9e9" stroke-width="3"/>
      <line id="Line_386" data-name="Line 386" y1="785.588" x2="785.588" transform="translate(306.594 389.033)" fill="none" stroke="#e9e9e9" stroke-width="3"/>
      <line id="Line_387" data-name="Line 387" y1="785.588" x2="785.588" transform="translate(314.22 396.658)" fill="none" stroke="#e9e9e9" stroke-width="3"/>
      <line id="Line_388" data-name="Line 388" y1="785.588" x2="785.588" transform="translate(321.845 404.283)" fill="none" stroke="#e9e9e9" stroke-width="3"/>
      <line id="Line_389" data-name="Line 389" y1="785.588" x2="785.588" transform="translate(329.47 411.909)" fill="none" stroke="#e9e9e9" stroke-width="3"/>
      <line id="Line_390" data-name="Line 390" y1="785.588" x2="785.588" transform="translate(337.096 419.534)" fill="none" stroke="#e9e9e9" stroke-width="3"/>
      <line id="Line_391" data-name="Line 391" y1="785.588" x2="785.588" transform="translate(344.721 427.16)" fill="none" stroke="#e9e9e9" stroke-width="3"/>
      <line id="Line_392" data-name="Line 392" y1="785.588" x2="785.588" transform="translate(352.346 434.785)" fill="none" stroke="#e9e9e9" stroke-width="3"/>
      <line id="Line_393" data-name="Line 393" y1="785.588" x2="785.588" transform="translate(359.972 442.41)" fill="none" stroke="#e9e9e9" stroke-width="3"/>
      <line id="Line_394" data-name="Line 394" y1="785.588" x2="785.588" transform="translate(367.597 450.036)" fill="none" stroke="#e9e9e9" stroke-width="3"/>
      <line id="Line_395" data-name="Line 395" y1="785.588" x2="785.588" transform="translate(375.223 457.661)" fill="none" stroke="#e9e9e9" stroke-width="3"/>
      <line id="Line_396" data-name="Line 396" y1="785.588" x2="785.588" transform="translate(382.848 465.286)" fill="none" stroke="#e9e9e9" stroke-width="3"/>
      <line id="Line_397" data-name="Line 397" y1="785.588" x2="785.588" transform="translate(390.473 472.912)" fill="none" stroke="#e9e9e9" stroke-width="3"/>
      <line id="Line_398" data-name="Line 398" y1="785.588" x2="785.588" transform="translate(398.099 480.537)" fill="none" stroke="#e9e9e9" stroke-width="3"/>
      <line id="Line_399" data-name="Line 399" y1="785.588" x2="785.588" transform="translate(405.724 488.163)" fill="none" stroke="#e9e9e9" stroke-width="3"/>
      <line id="Line_400" data-name="Line 400" y1="785.588" x2="785.588" transform="translate(413.35 495.788)" fill="none" stroke="#e9e9e9" stroke-width="3"/>
      <line id="Line_401" data-name="Line 401" y1="785.588" x2="785.588" transform="translate(420.975 503.414)" fill="none" stroke="#e9e9e9" stroke-width="3"/>
      <line id="Line_402" data-name="Line 402" y1="785.588" x2="785.588" transform="translate(428.6 511.039)" fill="none" stroke="#e9e9e9" stroke-width="3"/>
      <line id="Line_403" data-name="Line 403" y1="785.588" x2="785.588" transform="translate(436.226 518.664)" fill="none" stroke="#e9e9e9" stroke-width="3"/>
      <line id="Line_404" data-name="Line 404" y1="785.588" x2="785.588" transform="translate(443.851 526.29)" fill="none" stroke="#e9e9e9" stroke-width="3"/>
      <line id="Line_405" data-name="Line 405" y1="785.588" x2="785.588" transform="translate(451.477 533.915)" fill="none" stroke="#e9e9e9" stroke-width="3"/>
      <line id="Line_406" data-name="Line 406" y1="785.588" x2="785.588" transform="translate(459.102 541.541)" fill="none" stroke="#e9e9e9" stroke-width="3"/>
      <line id="Line_407" data-name="Line 407" y1="785.588" x2="785.588" transform="translate(466.727 549.166)" fill="none" stroke="#e9e9e9" stroke-width="3"/>
    </g>
  </g>
</svg>
