<svg xmlns="http://www.w3.org/2000/svg" xmlns:xlink="http://www.w3.org/1999/xlink" width="13.199" height="17.042" viewBox="0 0 13.199 17.042">
  <defs>
    <clipPath id="clip-path">
      <rect id="Rectangle_1341" data-name="Rectangle 1341" width="13.199" height="17.042" fill="#609690"/>
    </clipPath>
  </defs>
  <g id="Location_icon" data-name="Location icon" transform="translate(0 0)">
    <g id="Group_1750" data-name="Group 1750" transform="translate(0 0)" clip-path="url(#clip-path)">
      <path id="Path_2533" data-name="Path 2533" d="M9.875,11.859v-.31c-.044.089-.133.177-.222.31a40.554,40.554,0,0,1-2.561,3.666.9.9,0,0,1-.794.4H6.254a.8.8,0,0,1-.706-.4c-.617-.794-1.193-1.589-1.678-2.3-.355-.484-.661-.924-.927-1.367-.177-.31-.355-.573-.529-.839-.133-.222-.266-.44-.4-.661l-.089.573c0,.044.044.044.044.089.177.266.31.573.488.839A24.3,24.3,0,0,0,3.87,13.977c.484.709.927,1.326,1.323,1.811a1.507,1.507,0,0,0,1.06.576,1.485,1.485,0,0,0,1.193-.576,42.921,42.921,0,0,0,2.472-3.529v-.044ZM6.3,3.12A3.05,3.05,0,0,0,4.753,8.77H6.3A2.605,2.605,0,1,1,8.947,6.165,2.611,2.611,0,0,1,6.3,8.77H7.887A3.05,3.05,0,0,0,6.3,3.12m0,0A3.05,3.05,0,0,0,4.753,8.77a6.006,6.006,0,0,0,.794.351,3.843,3.843,0,0,0,.706.089H6.3a3.867,3.867,0,0,0,.75-.089,4.761,4.761,0,0,0,.839-.351A3.05,3.05,0,0,0,6.3,3.12m0,5.65A2.605,2.605,0,1,1,8.947,6.165,2.611,2.611,0,0,1,6.3,8.77m3.577,3.089v-.31c-.044.089-.133.177-.222.31a40.554,40.554,0,0,1-2.561,3.666.9.9,0,0,1-.794.4H6.254a.8.8,0,0,1-.706-.4c-.617-.794-1.193-1.589-1.678-2.3-.355-.484-.661-.924-.927-1.367-.177-.31-.355-.573-.529-.839-.133-.222-.266-.44-.4-.661l-.089.573c0,.044.044.044.044.089.177.266.31.573.488.839A24.3,24.3,0,0,0,3.87,13.977c.484.709.927,1.326,1.323,1.811a1.507,1.507,0,0,0,1.06.576,1.485,1.485,0,0,0,1.193-.576,42.921,42.921,0,0,0,2.472-3.529v-.044ZM6.3,3.12A3.05,3.05,0,0,0,4.753,8.77a6.006,6.006,0,0,0,.794.351,3.843,3.843,0,0,0,.706.089H6.3a3.867,3.867,0,0,0,.75-.089,4.761,4.761,0,0,0,.839-.351A3.05,3.05,0,0,0,6.3,3.12m0,5.65A2.605,2.605,0,1,1,8.947,6.165,2.611,2.611,0,0,1,6.3,8.77m0-5.65A3.05,3.05,0,0,0,4.753,8.77a6.006,6.006,0,0,0,.794.351,3.843,3.843,0,0,0,.706.089H6.3a3.867,3.867,0,0,0,.75-.089,4.761,4.761,0,0,0,.839-.351A3.05,3.05,0,0,0,6.3,3.12m0,5.65A2.605,2.605,0,1,1,8.947,6.165,2.611,2.611,0,0,1,6.3,8.77m0-5.65A3.05,3.05,0,0,0,4.753,8.77a6.006,6.006,0,0,0,.794.351,3.843,3.843,0,0,0,.706.089H6.3a3.867,3.867,0,0,0,.75-.089,4.761,4.761,0,0,0,.839-.351A3.05,3.05,0,0,0,6.3,3.12m0,5.65A2.605,2.605,0,1,1,8.947,6.165,2.611,2.611,0,0,1,6.3,8.77M6.3.116A6.2,6.2,0,0,0,.116,6.3,6.671,6.671,0,0,0,.781,8.77a1.163,1.163,0,0,0,.174.351c0,.044,0,.044.044.089v.044a1.327,1.327,0,0,0,.177.355,10.407,10.407,0,0,0,.75,1.323c0,.044.044.044.044.089.177.266.31.573.488.839A24.3,24.3,0,0,0,3.87,13.977c.484.709.927,1.326,1.323,1.811a1.507,1.507,0,0,0,1.06.576,1.485,1.485,0,0,0,1.193-.576,42.921,42.921,0,0,0,2.472-3.529v-.044a1.663,1.663,0,0,0,.218-.355,5.386,5.386,0,0,0,.532-.839c.218-.31.44-.661.617-.972V10c.044-.133.133-.263.177-.4a1.219,1.219,0,0,0,.174-.355V9.21c.044-.044.044-.044.044-.089a1.262,1.262,0,0,0,.177-.351A6.658,6.658,0,0,0,12.521,6.3,6.207,6.207,0,0,0,6.3.116M11.419,8.77a1.262,1.262,0,0,1-.177.351H11.2v.133c-.044.133-.133.222-.177.355a12.976,12.976,0,0,1-.839,1.412,3.362,3.362,0,0,1-.307.529c-.044.089-.133.177-.222.31a40.554,40.554,0,0,1-2.561,3.666.9.9,0,0,1-.794.4H6.254a.8.8,0,0,1-.706-.4c-.617-.794-1.193-1.589-1.678-2.3-.355-.484-.661-.924-.927-1.367-.177-.31-.355-.573-.529-.839-.133-.222-.266-.44-.4-.661-.133-.266-.266-.532-.355-.75-.085-.133-.174-.222-.174-.355L1.442,9.21C1.4,9.166,1.4,9.166,1.4,9.121a1.262,1.262,0,0,1-.177-.351A6.938,6.938,0,0,1,.515,6.3a5.805,5.805,0,0,1,11.61,0,6.938,6.938,0,0,1-.706,2.472M6.3,3.12A3.05,3.05,0,0,0,4.753,8.77a6.006,6.006,0,0,0,.794.351,3.843,3.843,0,0,0,.706.089H6.3a3.867,3.867,0,0,0,.75-.089,4.761,4.761,0,0,0,.839-.351A3.05,3.05,0,0,0,6.3,3.12m0,5.65A2.605,2.605,0,1,1,8.947,6.165,2.611,2.611,0,0,1,6.3,8.77m0-5.65A3.05,3.05,0,0,0,4.753,8.77a6.006,6.006,0,0,0,.794.351,3.843,3.843,0,0,0,.706.089H6.3a3.867,3.867,0,0,0,.75-.089,4.761,4.761,0,0,0,.839-.351A3.05,3.05,0,0,0,6.3,3.12m0,5.65A2.605,2.605,0,1,1,8.947,6.165,2.611,2.611,0,0,1,6.3,8.77m3.577,3.089v-.31c-.044.089-.133.177-.222.31a40.554,40.554,0,0,1-2.561,3.666.9.9,0,0,1-.794.4H6.254a.8.8,0,0,1-.706-.4c-.617-.794-1.193-1.589-1.678-2.3-.355-.484-.661-.924-.927-1.367-.177-.31-.355-.573-.529-.839-.133-.222-.266-.44-.4-.661-.133-.266-.266-.532-.355-.75H1.176a10.407,10.407,0,0,0,.75,1.323c0,.044.044.044.044.089.177.266.31.573.488.839A24.3,24.3,0,0,0,3.87,13.977c.484.709.927,1.326,1.323,1.811a1.507,1.507,0,0,0,1.06.576,1.485,1.485,0,0,0,1.193-.576,42.921,42.921,0,0,0,2.472-3.529v-.044ZM6.3,3.12A3.05,3.05,0,0,0,4.753,8.77a6.006,6.006,0,0,0,.794.351,3.843,3.843,0,0,0,.706.089H6.3a3.867,3.867,0,0,0,.75-.089,4.761,4.761,0,0,0,.839-.351A3.05,3.05,0,0,0,6.3,3.12m0,5.65A2.605,2.605,0,1,1,8.947,6.165,2.611,2.611,0,0,1,6.3,8.77m0-5.65A3.05,3.05,0,0,0,4.753,8.77a6.006,6.006,0,0,0,.794.351,3.843,3.843,0,0,0,.706.089H6.3a3.867,3.867,0,0,0,.75-.089,4.761,4.761,0,0,0,.839-.351A3.05,3.05,0,0,0,6.3,3.12m0,5.65A2.605,2.605,0,1,1,8.947,6.165,2.611,2.611,0,0,1,6.3,8.77m3.577,3.089v-.31c-.044.089-.133.177-.222.31a40.554,40.554,0,0,1-2.561,3.666.9.9,0,0,1-.794.4H6.254a.8.8,0,0,1-.706-.4c-.617-.794-1.193-1.589-1.678-2.3-.355-.484-.661-.924-.927-1.367-.177-.31-.355-.573-.529-.839-.133-.222-.266-.44-.4-.661l-.089.573c0,.044.044.044.044.089.177.266.31.573.488.839A24.3,24.3,0,0,0,3.87,13.977c.484.709.927,1.326,1.323,1.811a1.507,1.507,0,0,0,1.06.576,1.485,1.485,0,0,0,1.193-.576,42.921,42.921,0,0,0,2.472-3.529v-.044ZM6.3,3.12A3.05,3.05,0,0,0,4.753,8.77a6.006,6.006,0,0,0,.794.351,3.843,3.843,0,0,0,.706.089H6.3a3.867,3.867,0,0,0,.75-.089,4.761,4.761,0,0,0,.839-.351A3.05,3.05,0,0,0,6.3,3.12m0,5.65A2.605,2.605,0,1,1,8.947,6.165,2.611,2.611,0,0,1,6.3,8.77M2.943,11.859c-.177-.31-.355-.573-.529-.839-.133-.222-.266-.44-.4-.661l-.089.573c0,.044.044.044.044.089.177.266.31.573.488.839A24.3,24.3,0,0,0,3.87,13.977v-.75c-.355-.484-.661-.924-.927-1.367" transform="translate(0.28 0.281)" fill="#609690"/>
      <path id="Path_2534" data-name="Path 2534" d="M3.222,12.139c-.177-.31-.355-.573-.529-.839-.133-.222-.266-.44-.4-.661l-.089.573c0,.044.044.044.044.089.177.266.31.573.488.839A24.3,24.3,0,0,0,4.15,14.256v-.75c-.355-.484-.661-.924-.927-1.367m0,0c-.177-.31-.355-.573-.529-.839-.133-.222-.266-.44-.4-.661l-.089.573c0,.044.044.044.044.089.177.266.31.573.488.839A24.3,24.3,0,0,0,4.15,14.256v-.75c-.355-.484-.661-.924-.927-1.367m0,0c-.177-.31-.355-.573-.529-.839-.133-.222-.266-.44-.4-.661l-.089.573c0,.044.044.044.044.089.177.266.31.573.488.839A24.3,24.3,0,0,0,4.15,14.256v-.75c-.355-.484-.661-.924-.927-1.367m0,0c-.177-.31-.355-.573-.529-.839-.133-.222-.266-.44-.4-.661l-.089.573c0,.044.044.044.044.089.177.266.31.573.488.839A24.3,24.3,0,0,0,4.15,14.256v-.75c-.355-.484-.661-.924-.927-1.367m0,0c-.177-.31-.355-.573-.529-.839-.133-.222-.266-.44-.4-.661l-.089.573c0,.044.044.044.044.089.177.266.31.573.488.839A24.3,24.3,0,0,0,4.15,14.256v-.75c-.355-.484-.661-.924-.927-1.367m0,0c-.177-.31-.355-.573-.529-.839-.133-.222-.266-.44-.4-.661l-.089.573c0,.044.044.044.044.089.177.266.31.573.488.839A24.3,24.3,0,0,0,4.15,14.256v-.75c-.355-.484-.661-.924-.927-1.367m0,0c-.177-.31-.355-.573-.529-.839-.133-.222-.266-.44-.4-.661l-.089.573c0,.044.044.044.044.089.177.266.31.573.488.839A24.3,24.3,0,0,0,4.15,14.256v-.75c-.355-.484-.661-.924-.927-1.367m0,0c-.177-.31-.355-.573-.529-.839-.133-.222-.266-.44-.4-.661l-.089.573c0,.044.044.044.044.089.177.266.31.573.488.839A24.3,24.3,0,0,0,4.15,14.256v-.75c-.355-.484-.661-.924-.927-1.367m0,0c-.177-.31-.355-.573-.529-.839-.133-.222-.266-.44-.4-.661l-.089.573c0,.044.044.044.044.089.177.266.31.573.488.839A24.3,24.3,0,0,0,4.15,14.256v-.75c-.355-.484-.661-.924-.927-1.367m0,0c-.177-.31-.355-.573-.529-.839-.133-.222-.266-.44-.4-.661l-.089.573c0,.044.044.044.044.089.177.266.31.573.488.839A24.3,24.3,0,0,0,4.15,14.256v-.75c-.355-.484-.661-.924-.927-1.367m0,0c-.177-.31-.355-.573-.529-.839-.133-.222-.266-.44-.4-.661l-.089.573c0,.044.044.044.044.089.177.266.31.573.488.839A24.3,24.3,0,0,0,4.15,14.256v-.75c-.355-.484-.661-.924-.927-1.367m6.932,0v-.31c-.044.089-.133.177-.222.31A40.554,40.554,0,0,1,7.372,15.8a.9.9,0,0,1-.794.4H6.533a.8.8,0,0,1-.706-.4c-.617-.794-1.193-1.589-1.678-2.3-.355-.484-.661-.924-.927-1.367-.177-.31-.355-.573-.529-.839-.133-.222-.266-.44-.4-.661l-.089.573c0,.044.044.044.044.089.177.266.31.573.488.839A24.3,24.3,0,0,0,4.15,14.256c.484.709.927,1.326,1.323,1.811a1.507,1.507,0,0,0,1.06.576,1.485,1.485,0,0,0,1.193-.576A42.921,42.921,0,0,0,10.2,12.538v-.044Zm0,0v-.31c-.044.089-.133.177-.222.31A40.554,40.554,0,0,1,7.372,15.8a.9.9,0,0,1-.794.4H6.533a.8.8,0,0,1-.706-.4c-.617-.794-1.193-1.589-1.678-2.3-.355-.484-.661-.924-.927-1.367-.177-.31-.355-.573-.529-.839-.133-.222-.266-.44-.4-.661l-.089.573c0,.044.044.044.044.089.177.266.31.573.488.839A24.3,24.3,0,0,0,4.15,14.256c.484.709.927,1.326,1.323,1.811a1.507,1.507,0,0,0,1.06.576,1.485,1.485,0,0,0,1.193-.576A42.921,42.921,0,0,0,10.2,12.538v-.044ZM11.256,1.9A6.572,6.572,0,0,0,6.577,0,6.548,6.548,0,0,0,0,6.577,6.134,6.134,0,0,0,.617,9.05.517.517,0,0,0,.794,9.4a.061.061,0,0,0,0,.089l.044.044a1.825,1.825,0,0,0,.133.355c.218.44.484.883.75,1.412a1.927,1.927,0,0,1,.177.31.835.835,0,0,0,.174.263.927.927,0,0,0,.177.266,28.5,28.5,0,0,0,1.9,2.827c.351.529.706.968,1.016,1.367a1.759,1.759,0,0,0,1.367.706h.044a1.864,1.864,0,0,0,1.456-.706c.617-.839,1.456-1.944,2.25-3.134.222-.355.488-.706.665-1.06a4.172,4.172,0,0,0,.351-.529,2.543,2.543,0,0,0,.177-.31l.133-.266a9.888,9.888,0,0,0,.617-1.146,1.825,1.825,0,0,0,.133-.355l.044-.044a.137.137,0,0,0,.044-.089.687.687,0,0,0,.133-.351A6.134,6.134,0,0,0,13.2,6.577,6.51,6.51,0,0,0,11.256,1.9m.222,7.594v.044c-.044.133-.133.222-.177.355a12.976,12.976,0,0,1-.839,1.412,3.362,3.362,0,0,1-.307.529c-.044.089-.133.177-.222.31A40.554,40.554,0,0,1,7.372,15.8a.9.9,0,0,1-.794.4H6.533a.8.8,0,0,1-.706-.4c-.617-.794-1.193-1.589-1.678-2.3-.355-.484-.661-.924-.927-1.367-.177-.31-.355-.573-.529-.839-.133-.222-.266-.44-.4-.661-.133-.266-.266-.532-.355-.75-.085-.133-.174-.222-.174-.355l-.044-.044c-.044-.044-.044-.044-.044-.089A1.262,1.262,0,0,1,1.5,9.05,6.938,6.938,0,0,1,.794,6.577a5.805,5.805,0,0,1,11.61,0A6.938,6.938,0,0,1,11.7,9.05a1.262,1.262,0,0,1-.177.351c0,.044,0,.044-.044.089m-1.323,2.649v-.31c-.044.089-.133.177-.222.31A40.554,40.554,0,0,1,7.372,15.8a.9.9,0,0,1-.794.4H6.533a.8.8,0,0,1-.706-.4c-.617-.794-1.193-1.589-1.678-2.3-.355-.484-.661-.924-.927-1.367-.177-.31-.355-.573-.529-.839-.133-.222-.266-.44-.4-.661-.133-.266-.266-.532-.355-.75H1.456a10.407,10.407,0,0,0,.75,1.323c0,.044.044.044.044.089.177.266.31.573.488.839A24.3,24.3,0,0,0,4.15,14.256c.484.709.927,1.326,1.323,1.811a1.507,1.507,0,0,0,1.06.576,1.485,1.485,0,0,0,1.193-.576A42.921,42.921,0,0,0,10.2,12.538v-.044Zm0,0v-.31c-.044.089-.133.177-.222.31A40.554,40.554,0,0,1,7.372,15.8a.9.9,0,0,1-.794.4H6.533a.8.8,0,0,1-.706-.4c-.617-.794-1.193-1.589-1.678-2.3-.355-.484-.661-.924-.927-1.367-.177-.31-.355-.573-.529-.839-.133-.222-.266-.44-.4-.661l-.089.573c0,.044.044.044.044.089.177.266.31.573.488.839A24.3,24.3,0,0,0,4.15,14.256c.484.709.927,1.326,1.323,1.811a1.507,1.507,0,0,0,1.06.576,1.485,1.485,0,0,0,1.193-.576A42.921,42.921,0,0,0,10.2,12.538v-.044Zm-6.932,0c-.177-.31-.355-.573-.529-.839-.133-.222-.266-.44-.4-.661l-.089.573c0,.044.044.044.044.089.177.266.31.573.488.839A24.3,24.3,0,0,0,4.15,14.256v-.75c-.355-.484-.661-.924-.927-1.367m0,0c-.177-.31-.355-.573-.529-.839-.133-.222-.266-.44-.4-.661l-.089.573c0,.044.044.044.044.089.177.266.31.573.488.839A24.3,24.3,0,0,0,4.15,14.256v-.75c-.355-.484-.661-.924-.927-1.367m0,0c-.177-.31-.355-.573-.529-.839-.133-.222-.266-.44-.4-.661l-.089.573c0,.044.044.044.044.089.177.266.31.573.488.839A24.3,24.3,0,0,0,4.15,14.256v-.75c-.355-.484-.661-.924-.927-1.367m0,0c-.177-.31-.355-.573-.529-.839-.133-.222-.266-.44-.4-.661l-.089.573c0,.044.044.044.044.089.177.266.31.573.488.839A24.3,24.3,0,0,0,4.15,14.256v-.75c-.355-.484-.661-.924-.927-1.367m0,0c-.177-.31-.355-.573-.529-.839-.133-.222-.266-.44-.4-.661l-.089.573c0,.044.044.044.044.089.177.266.31.573.488.839A24.3,24.3,0,0,0,4.15,14.256v-.75c-.355-.484-.661-.924-.927-1.367m0,0c-.177-.31-.355-.573-.529-.839-.133-.222-.266-.44-.4-.661l-.089.573c0,.044.044.044.044.089.177.266.31.573.488.839A24.3,24.3,0,0,0,4.15,14.256v-.75c-.355-.484-.661-.924-.927-1.367m0,0c-.177-.31-.355-.573-.529-.839-.133-.222-.266-.44-.4-.661l-.089.573c0,.044.044.044.044.089.177.266.31.573.488.839A24.3,24.3,0,0,0,4.15,14.256v-.75c-.355-.484-.661-.924-.927-1.367m0,0c-.177-.31-.355-.573-.529-.839-.133-.222-.266-.44-.4-.661l-.089.573c0,.044.044.044.044.089.177.266.31.573.488.839A24.3,24.3,0,0,0,4.15,14.256v-.75c-.355-.484-.661-.924-.927-1.367m0,0c-.177-.31-.355-.573-.529-.839-.133-.222-.266-.44-.4-.661l-.089.573c0,.044.044.044.044.089.177.266.31.573.488.839A24.3,24.3,0,0,0,4.15,14.256v-.75c-.355-.484-.661-.924-.927-1.367m0,0c-.177-.31-.355-.573-.529-.839-.133-.222-.266-.44-.4-.661l-.089.573c0,.044.044.044.044.089.177.266.31.573.488.839A24.3,24.3,0,0,0,4.15,14.256v-.75c-.355-.484-.661-.924-.927-1.367m0,0c-.177-.31-.355-.573-.529-.839-.133-.222-.266-.44-.4-.661l-.089.573c0,.044.044.044.044.089.177.266.31.573.488.839A24.3,24.3,0,0,0,4.15,14.256v-.75c-.355-.484-.661-.924-.927-1.367" transform="translate(0 0.002)" fill="#609690"/>
      <path id="Path_2535" data-name="Path 2535" d="M4.05,1A3.052,3.052,0,0,0,2.5,6.65,6.488,6.488,0,0,0,3.3,7a3.843,3.843,0,0,0,.706.089H4.05A3.867,3.867,0,0,0,4.8,7a5.032,5.032,0,0,0,.839-.351A3.052,3.052,0,0,0,4.05,1m0,5.254A2.175,2.175,0,0,1,1.888,4.045,2.2,2.2,0,0,1,4.05,1.836a2.215,2.215,0,0,1,2.206,2.21A2.186,2.186,0,0,1,4.05,6.251" transform="translate(2.528 2.404)" fill="#609690"/>
    </g>
  </g>
</svg>
