<svg xmlns="http://www.w3.org/2000/svg" xmlns:xlink="http://www.w3.org/1999/xlink" width="20.068" height="25.979" viewBox="0 0 20.068 25.979">
  <defs>
    <clipPath id="clip-path">
      <rect id="Rectangle_1379" data-name="Rectangle 1379" width="20.068" height="25.979" fill="#b7b5b5"/>
    </clipPath>
  </defs>
  <g id="Group_1801" data-name="Group 1801" clip-path="url(#clip-path)">
    <path id="Path_2633" data-name="Path 2633" d="M14.182,22.229H3.782A2.665,2.665,0,0,1,1.12,19.567V4.585a.581.581,0,0,1,.762-.553l14.187-.01a.594.594,0,0,1,.529.087.6.6,0,0,1,.246.475V19.567a2.664,2.664,0,0,1-2.662,2.662M2.283,5.186V19.567a1.5,1.5,0,0,0,1.5,1.5h10.4a1.5,1.5,0,0,0,1.5-1.5V5.186Z" transform="translate(1.052 3.75)" fill="#b7b5b5"/>
    <path id="Path_2634" data-name="Path 2634" d="M17.121,7.463H2.947a1.21,1.21,0,0,1-.374-.047A2.863,2.863,0,0,1,0,4.516,2.951,2.951,0,0,1,2.947,1.569H17.121a2.951,2.951,0,0,1,2.947,2.947,2.916,2.916,0,0,1-2.707,2.926.677.677,0,0,1-.24.021M2.947,2.732A1.787,1.787,0,0,0,1.163,4.516,1.764,1.764,0,0,0,2.8,6.284l.147.6V6.3H17.121a.624.624,0,0,1,.147-.016A1.765,1.765,0,0,0,18.9,4.516a1.787,1.787,0,0,0-1.784-1.784Z" transform="translate(0 1.472)" fill="#b7b5b5"/>
    <path id="Path_2635" data-name="Path 2635" d="M5.453,18.367a.581.581,0,0,1-.582-.582V5.759a.582.582,0,0,1,1.163,0V17.786a.581.581,0,0,1-.582.582" transform="translate(4.573 4.86)" fill="#b7b5b5"/>
    <path id="Path_2636" data-name="Path 2636" d="M7.306,18.367a.581.581,0,0,1-.582-.582V5.759a.582.582,0,1,1,1.163,0V17.786a.581.581,0,0,1-.582.582" transform="translate(6.313 4.86)" fill="#b7b5b5"/>
    <path id="Path_2637" data-name="Path 2637" d="M3.6,18.367a.581.581,0,0,1-.582-.582V5.759a.582.582,0,1,1,1.163,0V17.786a.581.581,0,0,1-.582.582" transform="translate(2.835 4.86)" fill="#b7b5b5"/>
    <path id="Path_2638" data-name="Path 2638" d="M9.97,4.207H3.882A.583.583,0,0,1,3.3,3.626a3.626,3.626,0,1,1,7.252,0,.583.583,0,0,1-.582.582M4.533,3.044H9.318a2.462,2.462,0,0,0-4.785,0" transform="translate(3.098 -0.001)" fill="#b7b5b5"/>
  </g>
</svg>
