<svg xmlns="http://www.w3.org/2000/svg" xmlns:xlink="http://www.w3.org/1999/xlink" width="34.398" height="31.956" viewBox="0 0 34.398 31.956">
  <defs>
    <clipPath id="clip-path">
      <rect id="Rectangle_1354" data-name="Rectangle 1354" width="34.398" height="31.956" fill="#609690"/>
    </clipPath>
  </defs>
  <g id="Industries_Disciplines_icon" data-name="Industries &amp; Disciplines icon" transform="translate(0 0)">
    <g id="Group_1768" data-name="Group 1768" transform="translate(0 0)" clip-path="url(#clip-path)">
      <path id="Path_2569" data-name="Path 2569" d="M7.367,16.34a.759.759,0,0,1-.42-.129.747.747,0,0,1-.325-.616V5.289A.747.747,0,0,1,7.094,4.6l8.224-3.242a.762.762,0,0,1,.693.08.747.747,0,0,1,.325.616V12.355a.744.744,0,0,1-.472.693l-8.224,3.24a.752.752,0,0,1-.273.052M8.113,5.8v8.7l6.733-2.651V3.142Z" transform="translate(9.83 1.935)" fill="#609690"/>
      <path id="Path_2570" data-name="Path 2570" d="M12.283,16.338a.8.8,0,0,1-.273-.05L3.783,13.046a.747.747,0,0,1-.472-.693V2.047a.747.747,0,0,1,.325-.616.763.763,0,0,1,.693-.077l8.226,3.24a.747.747,0,0,1,.472.693V15.593a.745.745,0,0,1-.745.745M4.8,11.846,11.537,14.5V5.794L4.8,3.143Z" transform="translate(4.915 1.935)" fill="#609690"/>
      <path id="Path_2571" data-name="Path 2571" d="M12.281,7.97a.742.742,0,0,1-.273-.052L3.781,4.678a.745.745,0,0,1,0-1.386L12.012.052a.742.742,0,0,1,.547,0L20.783,3.29a.747.747,0,0,1,0,1.389l-8.229,3.24a.752.752,0,0,1-.273.052M6.089,3.985l6.191,2.44,6.194-2.44-6.189-2.44Z" transform="translate(4.912 -0.001)" fill="#609690"/>
      <path id="Path_2572" data-name="Path 2572" d="M4.057,21.847a.759.759,0,0,1-.42-.129.747.747,0,0,1-.325-.616V10.8a.747.747,0,0,1,.472-.693l8.224-3.24a.755.755,0,0,1,.693.077.747.747,0,0,1,.325.616V17.861a.744.744,0,0,1-.472.693l-8.224,3.24a.752.752,0,0,1-.273.052M4.8,11.3v8.7l6.733-2.651v-8.7Z" transform="translate(4.917 10.111)" fill="#609690"/>
      <path id="Path_2573" data-name="Path 2573" d="M8.974,21.847a.752.752,0,0,1-.273-.052L.474,18.555A.747.747,0,0,1,0,17.861V7.556a.747.747,0,0,1,.325-.616.756.756,0,0,1,.693-.077L9.247,10.1a.747.747,0,0,1,.472.693V21.1a.747.747,0,0,1-.325.616.759.759,0,0,1-.42.129M1.493,17.355l6.736,2.651V11.3L1.493,8.651Z" transform="translate(0.003 10.111)" fill="#609690"/>
      <path id="Path_2574" data-name="Path 2574" d="M8.972,13.478a.742.742,0,0,1-.273-.052L.472,10.186a.745.745,0,0,1,0-1.386L8.7,5.557a.767.767,0,0,1,.547,0L17.474,8.8a.747.747,0,0,1,0,1.389l-8.229,3.24a.752.752,0,0,1-.273.052M2.78,9.493,8.972,11.93l6.194-2.437L8.977,7.053Z" transform="translate(0 8.174)" fill="#609690"/>
      <path id="Path_2575" data-name="Path 2575" d="M10.68,21.847a.759.759,0,0,1-.42-.129.747.747,0,0,1-.325-.616V10.8a.747.747,0,0,1,.472-.693l8.224-3.24a.755.755,0,0,1,.693.077.747.747,0,0,1,.325.616V17.861a.744.744,0,0,1-.472.693l-8.224,3.24a.752.752,0,0,1-.273.052M11.426,11.3v8.7l6.733-2.651v-8.7Z" transform="translate(14.749 10.111)" fill="#609690"/>
      <path id="Path_2576" data-name="Path 2576" d="M15.6,21.847a.752.752,0,0,1-.273-.052L7.1,18.555a.747.747,0,0,1-.472-.693V7.556a.747.747,0,0,1,.325-.616.756.756,0,0,1,.693-.077l8.226,3.24a.747.747,0,0,1,.472.693V21.1a.747.747,0,0,1-.325.616.759.759,0,0,1-.42.129M8.115,17.355l6.736,2.651V11.3L8.115,8.651Z" transform="translate(9.833 10.111)" fill="#609690"/>
      <path id="Path_2577" data-name="Path 2577" d="M15.594,13.478a.742.742,0,0,1-.273-.052l-8.226-3.24a.745.745,0,0,1,0-1.386l8.231-3.242a.767.767,0,0,1,.547,0L24.1,8.8a.747.747,0,0,1,0,1.389l-8.229,3.24a.752.752,0,0,1-.273.052M9.4,9.493l6.191,2.437,6.194-2.437L15.6,7.053Z" transform="translate(9.83 8.174)" fill="#609690"/>
    </g>
  </g>
</svg>
