<svg xmlns="http://www.w3.org/2000/svg" xmlns:xlink="http://www.w3.org/1999/xlink" width="36.232" height="31.403" viewBox="0 0 36.232 31.403">
  <defs>
    <clipPath id="clip-path">
      <rect id="Rectangle_1353" data-name="Rectangle 1353" width="36.232" height="31.403" fill="#609690"/>
    </clipPath>
  </defs>
  <g id="Group_1767" data-name="Group 1767" clip-path="url(#clip-path)">
    <path id="Path_2566" data-name="Path 2566" d="M10.325,15.8a.831.831,0,0,1-.592-.246L4.314,10.133A.837.837,0,1,1,5.5,8.949l4.826,4.826,3.793-3.793A.837.837,0,0,1,15.3,11.167l-4.385,4.385a.831.831,0,0,1-.592.246" transform="translate(7.296 15.605)" fill="#609690"/>
    <path id="Path_2567" data-name="Path 2567" d="M6.171,19.952a.831.831,0,0,1-.592-.246L2.926,17.053A10.109,10.109,0,0,1,.211,7.887,10,10,0,0,1,17.625,3.552,10.14,10.14,0,0,1,27.182.164a9.983,9.983,0,0,1,6.3,15.461.838.838,0,0,1-1.38-.952,8.307,8.307,0,0,0-5.22-12.861A8.321,8.321,0,0,0,18.32,5.418a.84.84,0,0,1-.7.374h0a.836.836,0,0,1-.7-.38A8.315,8.315,0,0,0,1.854,8.225a8.439,8.439,0,0,0,2.259,7.65l2.65,2.648a.838.838,0,0,1-.592,1.43" transform="translate(0.001 0)" fill="#609690"/>
    <path id="Path_2568" data-name="Path 2568" d="M15.763,22.578h0a.844.844,0,0,1-.595-.246L7.6,14.735a5.749,5.749,0,1,1,8.169-8.091A5.857,5.857,0,0,1,21,5.025a5.469,5.469,0,0,1,1.584.561,5.764,5.764,0,0,1,1.371,9.149l-7.6,7.6a.825.825,0,0,1-.592.246M11.647,6.6a4.167,4.167,0,0,0-.785.073A4.113,4.113,0,0,0,7.675,9.789a4.072,4.072,0,0,0,1.112,3.762l6.979,7,7-7a4.073,4.073,0,0,0,1.086-3.779A4.022,4.022,0,0,0,21.8,7.066a3.709,3.709,0,0,0-1.1-.394,4.11,4.11,0,0,0-4.237,1.765.844.844,0,0,1-.7.371h-.006a.833.833,0,0,1-.7-.38A4.047,4.047,0,0,0,11.647,6.6" transform="translate(10.598 8.825)" fill="#609690"/>
  </g>
</svg>
