<svg xmlns="http://www.w3.org/2000/svg" xmlns:xlink="http://www.w3.org/1999/xlink" width="27.414" height="31.346" viewBox="0 0 27.414 31.346">
  <defs>
    <clipPath id="clip-path">
      <rect id="Rectangle_1352" data-name="Rectangle 1352" width="27.414" height="31.346" fill="#609690"/>
    </clipPath>
  </defs>
  <g id="Group_1765" data-name="Group 1765" clip-path="url(#clip-path)">
    <path id="Path_2555" data-name="Path 2555" d="M23.6,31.349H3.81A3.81,3.81,0,0,1,0,27.541V3.8A3.809,3.809,0,0,1,3.81,0H23.6a3.809,3.809,0,0,1,3.8,3.8V27.541a3.81,3.81,0,0,1-3.8,3.807M3.81,1.5a2.306,2.306,0,0,0-2.3,2.3V27.541a2.307,2.307,0,0,0,2.3,2.305H23.6a2.307,2.307,0,0,0,2.3-2.305V3.8a2.306,2.306,0,0,0-2.3-2.3Z" transform="translate(0.008 -0.001)" fill="#609690"/>
    <rect id="Rectangle_1351" data-name="Rectangle 1351" width="26.663" height="1.502" transform="translate(0 6.823)" fill="#609690"/>
    <path id="Path_2556" data-name="Path 2556" d="M10.618,2.855H2.325a.751.751,0,0,1,0-1.5h8.293a.751.751,0,0,1,0,1.5" transform="translate(2.366 2.033)" fill="#609690"/>
    <path id="Path_2557" data-name="Path 2557" d="M21.308,12.184H2.325a.751.751,0,1,1,0-1.5H21.308a.751.751,0,0,1,0,1.5" transform="translate(2.366 16.055)" fill="#609690"/>
    <path id="Path_2558" data-name="Path 2558" d="M12.754,11.011h-8.3a.751.751,0,1,1,0-1.5h8.3a.751.751,0,1,1,0,1.5" transform="translate(5.573 14.292)" fill="#609690"/>
    <path id="Path_2559" data-name="Path 2559" d="M8.1,2.865a.571.571,0,0,1-.275-.075.519.519,0,0,1-.25-.15.808.808,0,0,1-.2-.526.875.875,0,0,1,.2-.551,2.2,2.2,0,0,1,.25-.15.776.776,0,0,1,.826.15.875.875,0,0,1,.2.551.808.808,0,0,1-.2.526.777.777,0,0,1-.551.225" transform="translate(11.078 2.03)" fill="#609690"/>
    <path id="Path_2560" data-name="Path 2560" d="M9.011,2.858a.72.72,0,0,1-.526-.225.9.9,0,0,1-.175-.25.9.9,0,0,1-.05-.275.682.682,0,0,1,.225-.526.726.726,0,0,1,1.051,0,.682.682,0,0,1,.225.526.72.72,0,0,1-.225.526.682.682,0,0,1-.526.225" transform="translate(12.416 2.037)" fill="#609690"/>
    <path id="Path_2561" data-name="Path 2561" d="M9.911,2.865a.777.777,0,0,1-.551-.225.808.808,0,0,1-.2-.526.875.875,0,0,1,.2-.551.776.776,0,0,1,.826-.15,2.2,2.2,0,0,1,.25.15.777.777,0,0,1,.225.551.72.72,0,0,1-.225.526.519.519,0,0,1-.25.15.5.5,0,0,1-.275.075" transform="translate(13.768 2.03)" fill="#609690"/>
    <path id="Path_2562" data-name="Path 2562" d="M6.116,15.1a.75.75,0,0,1-.751-.751V7.539a.751.751,0,0,1,1.5,0V14.35a.75.75,0,0,1-.751.751" transform="translate(8.064 10.202)" fill="#609690"/>
    <path id="Path_2563" data-name="Path 2563" d="M7.412,12.6a13.454,13.454,0,0,1-3.552-.663,1.183,1.183,0,0,1-.783-.723.73.73,0,0,1,.04-.621l.939-1.752a.485.485,0,0,1,.053-.085c1.109-1.524,1.752-1.9,2.143-2.048a3.072,3.072,0,1,1,2.2,5.737,2.912,2.912,0,0,1-1.039.155m-2.618-1.96a7.106,7.106,0,0,0,3.116.4,1.571,1.571,0,0,0,.08-2.9,1.585,1.585,0,0,0-1.2-.033c-.113.043-.553.28-1.437,1.487Zm-.513-.145h0" transform="translate(4.548 9.772)" fill="#609690"/>
    <path id="Path_2564" data-name="Path 2564" d="M6.812,11.453a3.078,3.078,0,0,1-2.828-1.86c-.348-.816-.238-2.365.328-4.608A1.185,1.185,0,0,1,5,4.176a.753.753,0,0,1,.623.015l1.785.866A1.014,1.014,0,0,1,7.5,5.11C9.067,6.156,9.465,6.787,9.63,7.17A3.076,3.076,0,0,1,8.021,11.2a3.092,3.092,0,0,1-1.209.248M5.643,5.868A7.183,7.183,0,0,0,5.365,9,1.571,1.571,0,0,0,8.251,7.761c-.035-.08-.268-.518-1.542-1.374Z" transform="translate(5.689 6.186)" fill="#609690"/>
    <path id="Path_2565" data-name="Path 2565" d="M8.443,11.823A3.072,3.072,0,0,1,6.984,6.045,5.577,5.577,0,0,1,9.93,5.758a.643.643,0,0,1,.1.015l1.94.433a.752.752,0,0,1,.5.375A1.19,1.19,0,0,1,12.5,7.65c-.949,2.1-1.825,3.384-2.608,3.807a3.07,3.07,0,0,1-1.452.365m.421-4.611a2.769,2.769,0,0,0-1.169.155,1.57,1.57,0,1,0,1.487,2.766A7.108,7.108,0,0,0,10.913,7.51L9.754,7.252c-.35-.03-.646-.04-.891-.04" transform="translate(8.065 8.577)" fill="#609690"/>
  </g>
</svg>
