<svg id="Data_commons_icon" data-name="Data commons icon" xmlns="http://www.w3.org/2000/svg" xmlns:xlink="http://www.w3.org/1999/xlink" width="56.338" height="49.835" viewBox="0 0 56.338 49.835">
  <defs>
    <clipPath id="clip-path">
      <rect id="Rectangle_1389" data-name="Rectangle 1389" width="56.338" height="49.835" fill="none"/>
    </clipPath>
  </defs>
  <path id="Path_2646" data-name="Path 2646" d="M56.826,4.34v8.817H4.342V4.34Z" transform="translate(-3.577 -3.574)" fill="#b2d7d3"/>
  <g id="Group_1869" data-name="Group 1869">
    <g id="Group_1868" data-name="Group 1868" clip-path="url(#clip-path)">
      <path id="Path_2647" data-name="Path 2647" d="M195.914,224.538l-.4.4-.58-.337c-.042-.021-.083-.042-.123-.065Z" transform="translate(-160.453 -184.94)" fill="#b2d7d3"/>
      <path id="Path_2648" data-name="Path 2648" d="M41.365,44.5H0V0H54.013v29.05h-1.53V1.53H1.529V42.969H41.362Z" transform="translate(0 0)" fill="#609690"/>
      <path id="Path_2649" data-name="Path 2649" d="M53.812,51.528H4.334l0-1.53h49.48Z" transform="translate(-3.568 -41.18)" fill="#609690"/>
      <rect id="Rectangle_1386" data-name="Rectangle 1386" width="1.672" height="1.53" transform="translate(5.253 4.495)" fill="#609690"/>
      <rect id="Rectangle_1387" data-name="Rectangle 1387" width="1.672" height="1.53" transform="translate(8.931 4.495)" fill="#609690"/>
      <rect id="Rectangle_1388" data-name="Rectangle 1388" width="1.67" height="1.53" transform="translate(12.609 4.495)" fill="#609690"/>
      <path id="Path_2650" data-name="Path 2650" d="M182.04,154.417a1.525,1.525,0,0,1-.938-1.637,2.256,2.256,0,0,1,1.2-1.57.755.755,0,0,1,.169-.049,10.708,10.708,0,0,1,1.275-.122,14.978,14.978,0,0,1,4.423.665.191.191,0,0,0,.2-.071.211.211,0,0,0,.009-.222l-6.751-11.094c-1.189-1.958,1.984-3.994,3.173-2.039l3.614,5.933a.02.02,0,0,0,.019.007c.009,0,.016-.007.016-.016a2.136,2.136,0,0,1,3.52-1.242l.467.767h0c-.728-2.113,2.446-2.785,3.014-1.85l.757,1.245c-.772-2.016,2.231-2.973,2.973-1.749,0,0,.79,1.067,1.744,2.5a31.385,31.385,0,0,1,3,5.3,16.3,16.3,0,0,1,.783,5.213c.238,5.13-7.269,9.754-11.237,7.215-1.222-.781-2.088-1.5-3.453-2.425-.213-.145-.554-.36-.977-.619-1.279-.787-3.307-1.982-4.83-2.875-.591-.346-1.108-.645-1.473-.859" transform="translate(-149.146 -113.239)" fill="#b2d7d3"/>
      <path id="Path_2651" data-name="Path 2651" d="M192.553,159.512a5.63,5.63,0,0,1-3.063-.833c-.7-.445-1.275-.867-1.888-1.313-.484-.353-.985-.718-1.582-1.122-.2-.134-.525-.341-.948-.6-1.279-.787-3.326-1.993-4.817-2.867l-.942-.55-.53-.309a.732.732,0,0,0-.686-.392,2.292,2.292,0,0,1-1.324-2.432,3,3,0,0,1,1.667-2.152,1.517,1.517,0,0,1,.334-.1,11.475,11.475,0,0,1,1.374-.132,12.8,12.8,0,0,1,3.295.361l-6.037-9.921a2.575,2.575,0,0,1,1-3.569,2.442,2.442,0,0,1,3.479.735l2.887,4.74a2.827,2.827,0,0,1,1.576-.891,3.2,3.2,0,0,1,2,.211,2.6,2.6,0,0,1,1.1-.922,2.793,2.793,0,0,1,2.776.1,2.647,2.647,0,0,1,.937-.746,2.387,2.387,0,0,1,3.086.568c.128.174.863,1.176,1.747,2.5a30.4,30.4,0,0,1,3.077,5.453,15.8,15.8,0,0,1,.819,5.076c0,.147.008.272.012.371.128,2.744-1.748,5.647-4.777,7.4a9.28,9.28,0,0,1-4.573,1.332m-13.383-9.02a.763.763,0,0,1,.385.1l.528.308.945.551c1.5.878,3.555,2.09,4.845,2.883.448.274.786.489,1.005.637.619.419,1.131.792,1.625,1.152.593.432,1.153.841,1.811,1.261,1.5.959,3.816.754,6.047-.535,2.54-1.467,4.116-3.823,4.014-6-.005-.105-.009-.241-.014-.4a14.216,14.216,0,0,0-.72-4.576,29.5,29.5,0,0,0-2.919-5.146c-.932-1.395-1.715-2.455-1.723-2.465l-.039-.058c-.121-.2-.651-.254-1.126-.021a.8.8,0,0,0-.479,1.1l-1.368.671-.743-1.222a1.613,1.613,0,0,0-1.371.236.73.73,0,0,0-.28.944l.35,1.014h-1.5l-.693-1.134a1.557,1.557,0,0,0-1.238-.092,1.168,1.168,0,0,0-.869,1.026.785.785,0,0,1-1.433.339l-.015-.024-3.614-5.933a.956.956,0,0,0-1.378-.223,1.061,1.061,0,0,0-.487,1.467l6.763,11.116a.981.981,0,0,1-.044,1.03l-.019.026a.953.953,0,0,1-1.018.35,14.161,14.161,0,0,0-4.2-.639,9.987,9.987,0,0,0-1.184.113,1.549,1.549,0,0,0-.735.99c-.024.146-.082.49.553.84a.761.761,0,0,1,.305.308h.031m5.609-3.093.012,0-.012,0" transform="translate(-145.572 -109.677)" fill="#609690"/>
      <path id="Path_2652" data-name="Path 2652" d="M183.651,231.089a.76.76,0,0,1-.384-.1l-.559-.324c-.046-.023-.091-.047-.136-.073a.765.765,0,0,1,.752-1.332c.029.017.059.032.09.047l.04.022.583.338a.765.765,0,0,1-.386,1.426" transform="translate(-150.054 -188.744)" fill="#609690"/>
      <path id="Path_2653" data-name="Path 2653" d="M248.713,163.592a.764.764,0,0,1-.656-.37l-1.469-2.433A.765.765,0,0,1,247.9,160l1.469,2.433a.765.765,0,0,1-.654,1.16" transform="translate(-203.01 -131.477)" fill="#609690"/>
      <path id="Path_2654" data-name="Path 2654" d="M226.02,166.328a.764.764,0,0,1-.655-.369L223.9,163.53a.765.765,0,1,1,1.309-.791l1.469,2.429a.765.765,0,0,1-.654,1.161" transform="translate(-184.32 -133.735)" fill="#609690"/>
      <path id="Path_2655" data-name="Path 2655" d="M269.731,159.526a.764.764,0,0,1-.654-.368l-1.116-1.836a.765.765,0,1,1,1.307-.795l1.117,1.836a.765.765,0,0,1-.653,1.163" transform="translate(-220.612 -128.621)" fill="#609690"/>
      <path id="Path_2656" data-name="Path 2656" d="M142.588,128.044a.825.825,0,0,1-.607-1.383l6.438-6.983a.823.823,0,0,1,1.165-.048.823.823,0,0,1,.047,1.166l-6.438,6.983a.823.823,0,0,1-.605.266" transform="translate(-116.762 -98.352)" fill="#609690"/>
      <path id="Path_2657" data-name="Path 2657" d="M103.369,151.523a.823.823,0,0,1-.412-.11L98.438,148.8a.825.825,0,0,1-.3-1.127.826.826,0,0,1,1.127-.3l4.519,2.61a.825.825,0,0,1-.413,1.54" transform="translate(-80.738 -121.292)" fill="#609690"/>
      <path id="Path_2658" data-name="Path 2658" d="M36.5,158.429a.812.812,0,0,1-.6-.257.826.826,0,0,1,.031-1.166l7.662-7.259a.825.825,0,0,1,1.135,1.2L37.071,158.2a.82.82,0,0,1-.568.226" transform="translate(-29.387 -123.151)" fill="#609690"/>
      <path id="Path_2659" data-name="Path 2659" d="M79.467,135.865a2.778,2.778,0,1,1,2.778-2.778,2.781,2.781,0,0,1-2.778,2.778m0-3.906a1.128,1.128,0,1,0,1.129,1.129,1.13,1.13,0,0,0-1.129-1.129" transform="translate(-63.165 -107.328)" fill="#609690"/>
      <path id="Path_2660" data-name="Path 2660" d="M125.322,162.411a2.778,2.778,0,1,1,2.778-2.778,2.781,2.781,0,0,1-2.778,2.778m0-3.906a1.129,1.129,0,1,0,1.129,1.129,1.13,1.13,0,0,0-1.129-1.129" transform="translate(-100.933 -129.193)" fill="#609690"/>
      <path id="Path_2661" data-name="Path 2661" d="M178.05,105.125a2.778,2.778,0,1,1,2.777-2.778,2.781,2.781,0,0,1-2.777,2.778m0-3.906a1.129,1.129,0,1,0,1.128,1.129,1.13,1.13,0,0,0-1.128-1.129" transform="translate(-144.362 -82.009)" fill="#609690"/>
      <path id="Path_2662" data-name="Path 2662" d="M59.131,117.958H34.743a.825.825,0,0,1-.826-.824V95.962a.815.815,0,0,1,.242-.582.829.829,0,0,1,.122-.1.817.817,0,0,1,.462-.141.807.807,0,0,1,.46.141.848.848,0,0,1,.122.1.816.816,0,0,1,.242.582V116.4l24.3-.131a4.283,4.283,0,0,0-.739,1.685" transform="translate(-27.936 -78.36)" fill="#609690"/>
      <path id="Path_2663" data-name="Path 2663" d="M27.154,98.889a.816.816,0,0,1-.583-.242L25.018,97.1,23.6,98.648a.824.824,0,1,1-1.166-1.166L24.5,95.413a.844.844,0,0,1,1.166,0l2.068,2.068a.823.823,0,0,1,0,1.166.814.814,0,0,1-.582.242" transform="translate(-18.278 -78.395)" fill="#609690"/>
    </g>
  </g>
</svg>
