<svg xmlns="http://www.w3.org/2000/svg" xmlns:xlink="http://www.w3.org/1999/xlink" width="40.824" height="40.63" viewBox="0 0 40.824 40.63">
  <defs>
    <clipPath id="clip-path">
      <rect id="Rectangle_1272" data-name="Rectangle 1272" width="40.824" height="40.63" fill="#d66f67"/>
    </clipPath>
  </defs>
  <g id="Group_1728" data-name="Group 1728" transform="translate(0 0)">
    <g id="Group_1727" data-name="Group 1727" transform="translate(0 0)" clip-path="url(#clip-path)">
      <path id="Path_2432" data-name="Path 2432" d="M10.065,19.836h-6.3A3.767,3.767,0,0,1,0,16.071V8.955A3.767,3.767,0,0,1,3.762,5.19h6.3A1.024,1.024,0,0,1,11.09,6.212v12.6a1.024,1.024,0,0,1-1.025,1.022m-6.3-12.6a1.724,1.724,0,0,0-1.72,1.72v7.117a1.722,1.722,0,0,0,1.72,1.72H9.043V7.234Z" transform="translate(0.002 12.492)" fill="#d66f67"/>
      <path id="Path_2433" data-name="Path 2433" d="M16.056,19.836H9.75a1.025,1.025,0,0,1-1.022-1.022V6.212A1.025,1.025,0,0,1,9.75,5.19h6.306a3.767,3.767,0,0,1,3.761,3.765v7.117a3.767,3.767,0,0,1-3.761,3.765m-5.284-2.044h5.284a1.724,1.724,0,0,0,1.72-1.72V8.955a1.722,1.722,0,0,0-1.72-1.72H10.772Z" transform="translate(21.007 12.492)" fill="#d66f67"/>
      <path id="Path_2434" data-name="Path 2434" d="M2.628,19.725A1.021,1.021,0,0,1,1.606,18.7V14.942a14.942,14.942,0,1,1,29.885,0v3.4a1.02,1.02,0,1,1-2.041,0v-3.4a12.9,12.9,0,0,0-25.8,0V18.7a1.021,1.021,0,0,1-1.022,1.022" transform="translate(3.865 0.001)" fill="#d66f67"/>
      <path id="Path_2435" data-name="Path 2435" d="M15.526,16.041H7.591a1.022,1.022,0,1,1,0-2.044h7.934a2.927,2.927,0,0,0,2.923-2.923V10a1.022,1.022,0,0,1,2.044,0v1.077a4.973,4.973,0,0,1-4.967,4.967" transform="translate(15.81 21.602)" fill="#d66f67"/>
      <path id="Path_2436" data-name="Path 2436" d="M8.825,17.591a4.01,4.01,0,1,1,4.01-4.006,4.011,4.011,0,0,1-4.01,4.006m0-5.976a1.967,1.967,0,1,0,1.969,1.969,1.969,1.969,0,0,0-1.969-1.969" transform="translate(11.589 23.036)" fill="#d66f67"/>
    </g>
  </g>
</svg>
