<svg xmlns="http://www.w3.org/2000/svg" width="37.135" height="30.243" viewBox="0 0 37.135 30.243">
  <path id="Path_2437" data-name="Path 2437" d="M36.518,28.437a20.179,20.179,0,0,0,10.93,3.2c13.238,0,20.718-11.181,20.267-21.212a14.417,14.417,0,0,0,3.558-3.691,14.285,14.285,0,0,1-4.094,1.123,7.144,7.144,0,0,0,3.135-3.944,14.238,14.238,0,0,1-4.527,1.731,7.137,7.137,0,0,0-12.152,6.5A20.233,20.233,0,0,1,38.939,4.7a7.137,7.137,0,0,0,2.206,9.519,7.117,7.117,0,0,1-3.23-.893,7.137,7.137,0,0,0,5.719,7.082,7.126,7.126,0,0,1-3.219.122,7.13,7.13,0,0,0,6.659,4.951,14.327,14.327,0,0,1-10.556,2.953" transform="translate(-35.136 -2.398)" fill="none" stroke="#d66f67" stroke-linecap="round" stroke-linejoin="round" stroke-width="2"/>
</svg>
